# xmcd CD database file
#
# Track frame offsets:
#	150
#	31957
#	60829
#	99951
#	129459
#	159748
#	187016
#	204336
#	233846
#	263478
#	306558
#
# Disc length: 4659 seconds
#
# Revision: 2
# Processed by: cddbd v1.5.2PL0 Copyright (c) Steve Scherf et al.
# Submitted via: CDex 1.51
#
DISCID=8b12310b
DTITLE=The S.O.S. Band - Just The Way You Like It  and 3 [Remaster, Japan Edition]
DYEAR=1984
DGENRE=Soul
TTITLE0=No One's Gonna Love You
TTITLE1=Weekend Girl
TTITLE2=Just The Way You Like It
TTITLE3=Break Up
TTITLE4=Feeling
TTITLE5=I Don't Want Nobody Else
TTITLE6=Body Break
TTITLE7=Break Up [12" Remix Part 1]
TTITLE8=Break Up [12" Remix Part 2]
TTITLE9=Just The Way You Like It [Like It Long Mix]
TTITLE10=No One's Gonna Love You [Special Long Version]
EXTD=YEAR: 1984
EXTT0=
EXTT1=
EXTT2=
EXTT3=
EXTT4=
EXTT5=
EXTT6=
EXTT7=
EXTT8=
EXTT9=
EXTT10=
PLAYORDER=
